<svg xmlns="http://www.w3.org/2000/svg" viewBox="0 0 880 450" role="img">
  <style>
    .bg { fill: #fcfcfb; }
    .txt { fill: #0b0b0b; font: 600 15px -apple-system, 'Segoe UI', sans-serif; }
    .txt2 { fill: #52514e; font: 12px -apple-system, 'Segoe UI', sans-serif; }
    .txtm { fill: #7a7a74; font: 11px -apple-system, 'Segoe UI', sans-serif; }
    .tick { fill: #52514e; font: 11px -apple-system, 'Segoe UI', sans-serif;
            font-variant-numeric: tabular-nums; }
    .grid { stroke: #ececea; stroke-width: 1; }
    .evt { stroke: #9b9a94; stroke-width: 1; stroke-dasharray: 3 3; }
    .serious { stroke: #c62f2e; }
    .serious-txt { fill: #c62f2e; font: 600 11px -apple-system, sans-serif; }
    .ring { stroke: #fcfcfb; stroke-width: 2; }
    .s0 { stroke: #2a78d6; } .sf0 { fill: #2a78d6; }
    .s1 { stroke: #1baf7a; } .sf1 { fill: #1baf7a; }
    .s2 { stroke: #eda100; } .sf2 { fill: #eda100; }
    .s3 { stroke: #008300; } .sf3 { fill: #008300; }
    .s4 { stroke: #4a3aa7; } .sf4 { fill: #4a3aa7; }
    @media (prefers-color-scheme: dark) {
      .bg { fill: #1a1a19; }
      .txt { fill: #ffffff; }
      .txt2 { fill: #c3c2b7; }
      .txtm { fill: #93928c; }
      .tick { fill: #c3c2b7; }
      .grid { stroke: #2c2c2a; }
      .evt { stroke: #6b6a64; }
      .serious { stroke: #e66767; }
      .serious-txt { fill: #e66767; }
      .ring { stroke: #1a1a19; }
      .s0 { stroke: #3987e5; } .sf0 { fill: #3987e5; }
      .s1 { stroke: #199e70; } .sf1 { fill: #199e70; }
      .s2 { stroke: #c98500; } .sf2 { fill: #c98500; }
      .s3 { stroke: #008300; } .sf3 { fill: #008300; }
      .s4 { stroke: #9085e9; } .sf4 { fill: #9085e9; }
    }
  </style>
<rect class="bg" x="0" y="0" width="880" height="450" rx="8"/><text class="txt" x="56" y="30">Five-drone swarm — altitude under live LLM command</text><text class="txt2" x="56" y="50">Emulated fleet running the real MILO runtime · retask, fault and in-flight hot-swap repair</text><line class="grid" x1="56" y1="404.0" x2="856" y2="404.0"/><text class="tick" x="48" y="408.0" text-anchor="end">0</text><line class="grid" x1="56" y1="337.5" x2="856" y2="337.5"/><text class="tick" x="48" y="341.5" text-anchor="end">1</text><line class="grid" x1="56" y1="271.0" x2="856" y2="271.0"/><text class="tick" x="48" y="275.0" text-anchor="end">2</text><line class="grid" x1="56" y1="204.4" x2="856" y2="204.4"/><text class="tick" x="48" y="208.4" text-anchor="end">3</text><line class="grid" x1="56" y1="137.9" x2="856" y2="137.9"/><text class="tick" x="48" y="141.9" text-anchor="end">4</text><text class="txt2" x="856" y="422" text-anchor="end">time</text><text class="txt2" transform="rotate(-90 16 251)" x="16" y="251" text-anchor="middle">altitude (m)</text><text class="tick" x="56.0" y="422" text-anchor="middle">0s</text><text class="tick" x="223.1" y="422" text-anchor="middle">10s</text><text class="tick" x="390.3" y="422" text-anchor="middle">20s</text><text class="tick" x="557.4" y="422" text-anchor="middle">30s</text><text class="tick" x="724.5" y="422" text-anchor="middle">40s</text><line class="evt" x1="71.9" y1="92" x2="71.9" y2="404"/><text class="txtm" x="75.9" y="100">launch</text><line class="evt" x1="239.1" y1="92" x2="239.1" y2="404"/><text class="txtm" x="243.1" y="100">retask → 3.0 m</text><line class="evt" x1="389.6" y1="92" x2="389.6" y2="404"/><text class="txtm" x="393.6" y="100">motor fault</text><line class="evt" x1="654.9" y1="92" x2="654.9" y2="404"/><text class="txtm" x="658.9" y="100">LLM hot-swap</text><line class="evt" x1="855.6" y1="92" x2="855.6" y2="404"/><text class="txtm" x="851.6" y="100" text-anchor="end">land</text><polyline points="71.9,404.0 79.0,397.8 86.1,383.8 93.3,365.7 100.4,346.6 107.7,328.8 114.9,314.5 122.1,303.9 129.3,297.2 136.6,294.0 143.6,293.6 150.8,295.3 157.8,298.1 165.2,301.6 172.4,305.0 179.5,308.1 186.6,310.5 193.6,312.1 200.7,313.1 208.1,313.6 215.3,313.5 222.4,313.1 229.6,312.6 236.7,311.9 243.8,308.3 251.0,294.2 258.2,274.0 265.3,252.3 272.5,231.2 279.7,213.3 286.7,200.0 293.9,190.9 301.0,185.9 308.2,184.5 315.3,185.6 322.5,188.5 329.7,192.4 336.8,196.4 344.0,200.0 351.3,203.2 358.5,205.4 365.8,206.9 373.0,207.6 380.2,207.6 387.3,207.4 394.6,206.8 401.7,206.0 408.8,205.3 415.9,204.7 423.0,204.2 430.1,203.8 437.3,203.6 444.8,203.5 451.9,203.5 459.1,203.6 466.2,203.7 473.3,203.9 480.5,204.0 487.7,204.1 494.8,204.1 501.9,204.2 509.2,204.2 516.3,204.2 523.4,204.2 530.6,204.2 537.8,204.2 545.0,204.2 552.1,204.2 559.1,204.2 566.3,204.2 573.6,204.2 580.7,204.2 587.9,204.2 595.0,204.2 602.3,204.2 609.3,204.2 616.5,204.2 623.6,204.2 630.8,204.2 638.1,204.2 645.3,204.2 652.4,204.2 659.8,204.2 667.0,204.2 674.1,204.2 681.2,204.2 688.4,204.2 695.6,204.2 702.8,204.2 710.0,204.2 717.2,204.2 724.1,204.2 731.2,204.2 738.3,204.2 745.4,204.2 752.4,204.2 759.7,204.2 766.9,204.2 774.1,204.2 781.4,204.2 788.6,204.2 795.7,204.2 802.9,204.2 810.1,204.2 817.2,204.2 824.4,204.2 831.4,204.2 838.6,204.2 845.7,204.2 852.9,204.2" fill="none" class="s0" stroke-width="2.0" stroke-linejoin="round" stroke-linecap="round" /><polyline points="72.0,404.0 79.1,394.7 86.1,373.9 93.3,346.7 100.5,317.9 107.8,291.5 114.9,270.1 121.9,254.4 129.2,244.1 136.4,239.3 143.5,238.6 150.7,241.0 157.9,245.3 164.9,250.4 172.3,255.6 179.6,260.2 186.6,263.8 193.6,266.3 200.6,267.8 207.8,268.5 214.9,268.5 222.0,268.0 229.1,267.1 236.2,266.2 243.1,264.2 250.3,256.7 257.4,245.5 264.4,233.2 271.6,221.1 278.7,210.6 285.9,202.5 293.1,197.0 300.4,193.9 307.5,192.9 314.7,193.5 321.6,195.0 328.7,197.1 336.0,199.5 343.2,201.6 350.4,203.4 357.5,204.7 364.6,205.6 371.7,206.0 378.9,206.2 386.1,206.0 393.2,205.6 400.4,205.2 407.5,204.8 414.8,204.4 422.1,204.1 429.1,203.9 436.3,203.8 443.5,203.7 450.4,203.7 457.5,203.8 464.6,203.9 471.7,203.9 478.7,204.0 485.9,204.0 493.3,204.0 500.6,204.0 507.8,204.0 514.9,204.0 522.0,204.0 529.4,204.0 536.5,204.0 543.6,204.0 550.9,204.0 558.1,204.0 565.3,204.0 572.6,204.0 579.9,204.0 587.2,204.0 594.3,204.0 601.5,204.0 608.7,204.0 616.0,204.0 623.0,204.0 630.1,204.0 637.3,204.0 644.6,204.0 651.7,204.0 658.8,204.0 666.0,204.0 673.1,204.0 680.3,204.0 687.5,204.0 694.7,204.0 701.8,204.0 708.9,204.0 716.1,204.0 723.4,204.0 730.8,204.0 738.0,204.0 745.3,204.0 752.6,204.0 759.7,204.0 766.8,204.0 774.0,204.0 781.0,204.0 788.1,204.0 795.2,204.0 802.3,204.0 809.4,204.0 816.5,204.0 823.6,204.0 830.7,204.0 837.9,204.0 845.1,204.0 852.3,204.0" fill="none" class="s1" stroke-width="2.0" stroke-linejoin="round" stroke-linecap="round" /><polyline points="72.0,404.0 79.1,388.5 86.2,353.6 93.3,308.5 100.5,260.9 107.6,217.7 114.7,182.0 121.8,155.2 128.8,138.6 136.1,129.9 143.2,128.6 150.3,132.3 157.6,139.5 164.8,148.2 172.2,157.0 179.5,164.7 186.7,170.7 194.0,175.0 201.2,177.5 208.3,178.5 215.5,178.4 222.7,177.4 229.9,176.0 237.0,174.4 244.0,173.8 251.2,176.7 258.3,181.7 265.5,187.8 272.5,193.9 279.7,199.3 286.8,203.7 294.0,206.8 301.1,208.8 308.4,209.6 315.6,209.6 322.7,208.9 329.9,207.9 337.1,206.8 344.3,205.7 351.4,204.7 358.6,204.0 365.8,203.5 373.0,203.2 380.1,203.1 387.2,203.1 394.4,203.2 401.5,203.4 408.6,203.6 415.8,203.8 423.0,204.0 430.1,204.1 437.2,204.2 444.4,204.2 451.6,204.3 458.8,204.3 465.9,204.4 473.1,204.4 480.2,204.4 487.3,204.4 494.4,204.4 501.5,204.4 508.5,204.4 515.6,204.4 522.8,204.4 529.9,204.4 537.1,204.4 544.3,204.4 551.4,204.4 558.6,204.4 565.9,204.4 573.0,204.4 580.1,204.4 587.2,204.4 594.3,204.4 601.5,204.4 608.8,204.4 616.0,204.4 623.1,204.4 630.2,204.4 637.3,204.4 644.5,204.4 651.6,204.4 658.7,204.4 665.8,204.4 672.8,204.4 680.0,204.4 687.2,204.4 694.4,204.4 701.6,204.4 708.8,204.4 716.0,204.4 723.2,204.4 730.3,204.4 737.5,204.4 744.4,204.4 751.6,204.4 758.9,204.4 766.0,204.4 773.1,204.4 780.3,204.4 787.6,204.4 794.7,204.4 802.0,204.4 809.1,204.4 816.1,204.4 823.2,204.4 830.2,204.4 837.3,204.4 844.3,204.4 851.5,204.4" fill="none" class="s3" stroke-width="2.0" stroke-linejoin="round" stroke-linecap="round" /><polyline points="72.0,404.0 79.2,385.0 86.4,342.1 93.7,286.1 101.0,228.3 108.1,176.8 115.2,134.7 122.4,103.7 129.5,98.0 136.6,98.0 143.8,98.0 151.0,98.0 158.2,98.0 165.3,98.0 172.3,107.6 179.3,116.6 186.4,123.8 193.6,129.0 200.7,132.1 207.8,133.5 214.9,133.3 222.0,132.3 229.1,130.6 236.4,128.7 243.5,128.5 250.7,136.2 257.9,149.4 265.1,164.7 272.5,180.6 279.6,193.9 286.9,204.7 294.0,212.0 301.1,216.2 308.3,217.9 315.4,217.5 322.5,215.8 329.7,213.2 336.7,210.4 343.8,207.8 351.0,205.4 358.0,203.6 365.1,202.4 372.3,201.8 379.3,201.6 386.5,201.7 393.6,202.1 400.8,202.6 407.9,203.1 415.2,203.6 422.3,204.0 429.4,204.3 436.6,204.5 443.9,204.6 451.0,204.6 458.2,204.4 465.4,204.4 472.6,204.3 479.7,204.2 486.9,204.2 494.0,204.2 501.2,204.2 508.4,204.1 515.4,204.1 522.6,204.1 529.8,204.1 537.1,204.1 544.1,204.1 551.3,204.1 558.5,204.1 565.6,204.1 572.8,204.1 579.9,204.1 586.9,204.1 593.9,204.1 600.9,204.1 608.0,204.1 615.2,204.1 622.4,204.1 629.5,204.1 636.6,204.1 643.8,204.1 651.1,204.1 658.1,204.1 665.2,204.1 672.2,204.1 679.3,204.1 686.5,204.1 693.6,204.1 700.7,204.1 707.9,204.1 715.2,204.1 722.2,204.1 729.4,204.1 736.6,204.1 743.8,204.1 751.1,204.1 758.2,204.1 765.2,204.1 772.4,204.1 779.6,204.1 786.8,204.1 794.1,204.1 801.3,204.1 808.4,204.1 815.4,204.1 822.6,204.1 829.9,204.1 837.1,204.1 844.4,204.1 851.5,204.1" fill="none" class="s4" stroke-width="2.0" stroke-linejoin="round" stroke-linecap="round" /><polyline points="71.9,404.0 79.1,391.6 86.2,363.4 93.4,326.7 100.8,287.7 108.0,253.1 115.0,225.1 122.1,204.1 129.2,191.0 136.4,184.5 143.5,183.7 150.7,186.9 157.9,192.7 165.1,199.5 172.3,206.4 179.6,212.6 186.7,217.3 193.8,220.7 200.9,222.7 207.9,223.5 215.2,223.5 222.5,222.7 229.7,221.6 237.0,220.3 244.2,218.7 251.3,216.0 258.5,212.7 265.5,209.5 272.7,206.6 279.7,204.3 286.8,202.6 294.1,201.6 301.1,201.2 308.2,201.2 315.5,201.4 322.7,202.0 329.8,202.6 336.8,203.2 344.0,203.7 351.1,204.1 358.1,204.4 365.3,204.6 372.4,204.6 379.6,204.6 386.8,204.5 393.9,206.8 401.2,217.5 408.4,233.0 415.4,250.2 422.5,267.4 429.7,282.9 436.9,295.8 444.2,305.4 451.5,311.9 458.7,315.4 465.9,316.5 473.1,315.9 480.3,314.1 487.5,311.7 494.7,309.0 501.8,306.5 509.1,304.2 516.3,302.4 523.4,301.1 530.6,300.3 537.8,299.8 545.0,299.8 552.2,299.9 559.4,300.2 566.6,300.6 573.8,301.0 581.0,301.4 588.3,301.6 595.6,301.9 602.9,302.1 610.2,302.2 617.3,302.3 624.5,302.3 631.6,302.2 638.8,302.2 645.9,302.1 653.2,302.1 660.5,303.9 667.6,309.2 674.8,316.4 682.0,324.0 689.2,330.9 696.3,336.3 703.5,339.9 710.6,341.1 717.9,340.1 725.1,336.8 732.3,331.3 739.5,324.0 746.8,314.9 754.0,304.7 761.1,293.6 768.4,281.9 775.6,269.9 782.7,258.2 789.9,246.7 797.0,236.0 804.1,226.0 811.1,217.0 818.2,209.0 825.4,201.9 832.4,196.1 839.6,191.3 846.8,187.5 853.8,184.6" fill="none" class="s2" stroke-width="3.0" stroke-linejoin="round" stroke-linecap="round" /><line class="s0" x1="56" y1="68" x2="74" y2="68" stroke-width="3"/><text class="txt2" x="80" y="72">drone-1</text><line class="s1" x1="165" y1="68" x2="183" y2="68" stroke-width="3"/><text class="txt2" x="189" y="72">drone-2</text><line class="s2" x1="274" y1="68" x2="292" y2="68" stroke-width="3"/><text class="txt2" x="298" y="72">drone-3</text><line class="s3" x1="383" y1="68" x2="401" y2="68" stroke-width="3"/><text class="txt2" x="407" y="72">drone-4</text><line class="s4" x1="492" y1="68" x2="510" y2="68" stroke-width="3"/><text class="txt2" x="516" y="72">drone-5</text><text class="txt2" x="471.9" y="332.5">drone-3 droops to 1.3 m</text><circle class="sf2 ring" cx="465.9" cy="316.5" r="4"/></svg>